<svg width="20" height="19" viewBox="0 0 20 19" fill="none" xmlns="http://www.w3.org/2000/svg">
<path d="M11.1995 0.484659C10.87 0.189874 10.4433 0.0268197 10.0012 0.0263676C9.5591 0.0260732 9.13231 0.188552 8.80219 0.482738L1.08236 7.29307C0.7109 7.61905 0.488814 8.08279 0.46749 8.57669C0.446297 9.07059 0.627613 9.55171 0.969787 9.90846C1.31181 10.2654 1.78468 10.467 2.27903 10.4667H2.41752C2.50818 10.4677 2.58132 10.5408 2.58235 10.6315V17.2248C2.58279 17.5308 2.70436 17.8239 2.9207 18.0403C3.13705 18.2567 3.4302 18.3782 3.7362 18.3787H6.70319C7.00916 18.3782 7.30232 18.2567 7.51869 18.0403C7.73503 17.824 7.8566 17.5308 7.85704 17.2248V13.9282C7.85704 13.1626 8.26545 12.4553 8.92847 12.0725C9.5915 11.6897 10.4083 11.6897 11.0713 12.0725C11.7343 12.4553 12.1427 13.1626 12.1427 13.9282V17.2248C12.1432 17.5308 12.2647 17.8239 12.4811 18.0403C12.6974 18.2567 12.9906 18.3782 13.2966 18.3787H16.2636C16.5695 18.3782 16.8627 18.2567 17.0791 18.0403C17.2954 17.824 17.417 17.5308 17.4174 17.2248V10.6315C17.4184 10.5408 17.4916 10.4677 17.5823 10.4667H17.7207C18.2149 10.467 18.6878 10.2655 19.0298 9.90873C19.3719 9.55196 19.5533 9.07104 19.5323 8.57725C19.5111 8.08351 19.2893 7.6199 18.918 7.29363L11.1995 0.484659Z" fill="currentColor"/>
</svg>
